<svg xmlns="http://www.w3.org/2000/svg" width="256" height="256" viewBox="0 0 100 100"><rect width="100" height="100" rx="20" fill="#7d6ee7"></rect><path fill="#fff" d="M15.25 51.87L15.25 51.87Q15.25 52.81 15.80 53.20Q16.34 53.59 17.33 53.59L17.33 53.59Q17.77 53.59 18.27 53.46Q18.76 53.33 19.13 53.15L19.13 53.15Q19.31 53.35 19.45 53.61Q19.59 53.87 19.59 54.24L19.59 54.24Q19.59 54.91 18.90 55.36Q18.21 55.80 16.81 55.80L16.81 55.80Q14.86 55.80 13.70 54.93Q12.55 54.06 12.55 52.05L12.55 52.05L12.55 39.91Q12.73 39.86 13.07 39.78Q13.40 39.70 13.79 39.70L13.79 39.70Q14.55 39.70 14.90 39.99Q15.25 40.28 15.25 40.95L15.25 40.95L15.25 43.53L19.28 43.53Q19.38 43.68 19.48 43.97Q19.57 44.25 19.57 44.57L19.57 44.57Q19.57 45.68 18.60 45.68L18.60 45.68L15.25 45.68L15.25 51.87ZM32.07 49.64L24.48 50.73Q24.84 52.21 25.90 52.93Q26.95 53.64 28.59 53.64L28.59 53.64Q29.68 53.64 30.59 53.30Q31.50 52.96 32.05 52.57L32.05 52.57Q32.77 52.99 32.77 53.74L32.77 53.74Q32.77 54.19 32.44 54.56Q32.10 54.94 31.51 55.21Q30.93 55.49 30.14 55.64Q29.34 55.80 28.43 55.80L28.43 55.80Q26.92 55.80 25.69 55.38Q24.45 54.97 23.57 54.13Q22.69 53.30 22.21 52.08Q21.72 50.86 21.72 49.25L21.72 49.25Q21.72 47.69 22.19 46.50Q22.66 45.32 23.47 44.53Q24.27 43.73 25.36 43.32Q26.46 42.90 27.70 42.90L27.70 42.90Q28.95 42.90 29.98 43.31Q31.01 43.71 31.75 44.42Q32.49 45.14 32.89 46.13Q33.29 47.11 33.29 48.28L33.29 48.28Q33.29 48.93 32.98 49.23Q32.67 49.53 32.07 49.64L32.07 49.64ZM27.70 45.01L27.70 45.01Q26.27 45.01 25.33 45.97Q24.38 46.93 24.32 48.73L24.32 48.73L30.72 47.82Q30.62 46.65 29.86 45.83Q29.11 45.01 27.70 45.01ZM44.29 47.56L44.29 47.56Q44.29 46.28 43.58 45.68Q42.86 45.09 41.64 45.09L41.64 45.09Q40.73 45.09 40.02 45.32Q39.30 45.55 38.78 45.84L38.78 45.84L38.78 55.38Q38.60 55.46 38.27 55.53Q37.95 55.59 37.56 55.59L37.56 55.59Q36.80 55.59 36.44 55.30Q36.08 55.02 36.08 54.34L36.08 54.34L36.08 45.76Q36.08 45.16 36.31 44.80Q36.55 44.44 37.09 44.07L37.09 44.07Q37.82 43.63 38.99 43.27Q40.16 42.90 41.64 42.90L41.64 42.90Q44.16 42.90 45.59 44.03Q47.02 45.16 47.02 47.45L47.02 47.45L47.02 55.38Q46.84 55.46 46.50 55.53Q46.17 55.59 45.78 55.59L45.78 55.59Q45.02 55.59 44.66 55.30Q44.29 55.02 44.29 54.34L44.29 54.34L44.29 47.56ZM56.12 55.80L56.12 55.80Q55.29 55.80 54.56 55.63Q53.84 55.46 53.31 55.20L53.31 55.20L53.31 60.09Q53.13 60.17 52.81 60.23Q52.48 60.30 52.09 60.30L52.09 60.30Q51.34 60.30 50.98 60.01Q50.61 59.72 50.61 59.02L50.61 59.02L50.61 45.58Q50.61 45.01 50.82 44.66Q51.03 44.31 51.60 43.97L51.60 43.97Q52.33 43.55 53.38 43.23Q54.43 42.90 55.76 42.90L55.76 42.90Q57.11 42.90 58.28 43.28Q59.45 43.66 60.31 44.44Q61.17 45.22 61.66 46.43Q62.16 47.63 62.16 49.30L62.16 49.30Q62.16 50.94 61.70 52.15Q61.25 53.35 60.45 54.17Q59.66 54.99 58.55 55.40Q57.45 55.80 56.12 55.80ZM55.71 53.59L55.71 53.59Q57.40 53.59 58.39 52.56Q59.37 51.53 59.37 49.30L59.37 49.30Q59.37 48.15 59.09 47.35Q58.80 46.54 58.32 46.04Q57.84 45.53 57.18 45.31Q56.51 45.09 55.76 45.09L55.76 45.09Q54.93 45.09 54.34 45.28Q53.76 45.48 53.31 45.74L53.31 45.74L53.31 52.89Q53.76 53.20 54.36 53.39Q54.95 53.59 55.71 53.59ZM69.67 53.69L69.67 53.69Q70.58 53.69 71.25 53.51Q71.93 53.33 72.22 53.12L72.22 53.12L72.22 49.82L69.38 50.10Q68.19 50.23 67.59 50.64Q66.99 51.04 66.99 51.87L66.99 51.87Q66.99 52.73 67.64 53.21Q68.29 53.69 69.67 53.69ZM69.62 42.90L69.62 42.90Q72.03 42.90 73.47 43.96Q74.89 45.01 74.89 47.27L74.89 47.27L74.89 53.33Q74.89 53.93 74.62 54.25Q74.35 54.58 73.88 54.86L73.88 54.86Q73.20 55.25 72.14 55.54Q71.07 55.82 69.67 55.82L69.67 55.82Q67.15 55.82 65.73 54.84Q64.31 53.85 64.31 51.92L64.31 51.92Q64.31 50.21 65.42 49.30Q66.52 48.39 68.60 48.18L68.60 48.18L72.22 47.82L72.22 47.24Q72.22 46.10 71.48 45.58Q70.73 45.06 69.41 45.06L69.41 45.06Q68.37 45.06 67.41 45.35Q66.44 45.63 65.69 46.00L65.69 46.00Q65.43 45.79 65.25 45.49Q65.07 45.19 65.07 44.83L65.07 44.83Q65.07 44.38 65.29 44.10Q65.51 43.81 65.98 43.60L65.98 43.60Q66.70 43.24 67.64 43.07Q68.58 42.90 69.62 42.90ZM87.45 52.08L87.45 52.08Q87.45 53.82 86.15 54.81Q84.85 55.80 82.38 55.80L82.38 55.80Q81.37 55.80 80.51 55.64Q79.65 55.49 79.04 55.20Q78.43 54.91 78.09 54.52Q77.76 54.13 77.76 53.67L77.76 53.67Q77.76 53.28 77.95 52.94Q78.15 52.60 78.48 52.39L78.48 52.39Q79.21 52.86 80.15 53.25Q81.08 53.64 82.33 53.64L82.33 53.64Q83.50 53.64 84.13 53.24Q84.75 52.83 84.75 52.08L84.75 52.08Q84.75 51.43 84.32 51.04Q83.89 50.65 83.06 50.44L83.06 50.44L81.29 49.97Q79.52 49.51 78.69 48.70Q77.86 47.89 77.86 46.49L77.86 46.49Q77.86 45.74 78.17 45.07Q78.48 44.41 79.09 43.93Q79.71 43.45 80.62 43.18Q81.53 42.90 82.70 42.90L82.70 42.90Q83.63 42.90 84.40 43.05Q85.17 43.19 85.72 43.44Q86.28 43.68 86.60 44.05Q86.91 44.41 86.91 44.83L86.91 44.83Q86.91 45.24 86.73 45.54Q86.54 45.84 86.26 46.02L86.26 46.02Q85.79 45.74 84.87 45.40Q83.94 45.06 82.88 45.06L82.88 45.06Q81.79 45.06 81.16 45.44Q80.54 45.81 80.54 46.49L80.54 46.49Q80.54 47.01 80.89 47.35Q81.24 47.69 82.10 47.89L82.10 47.89L83.61 48.28Q85.58 48.80 86.52 49.69Q87.45 50.57 87.45 52.08Z"></path></svg>